<svg version="1.1" id="Layer_1" xmlns="http://www.w3.org/2000/svg" xmlns:xlink="http://www.w3.org/1999/xlink" x="0px" y="0px" viewBox="0 0 285.1 90" style="enable-background:new 0 0 285.1 90;" xml:space="preserve">
 <style type="text/css">
  .st0{fill:#7F7F7F;}
 </style>
 <g id="灰色标志">
  <path id="XMLID_588_" class="st0" d="M53.2,27.6c-2.6,0-4.7-2.1-4.7-4.8s2.1-4.8,4.7-4.8c2.6,0,4.7,2.1,4.7,4.8
		S55.8,27.6,53.2,27.6 M26.6,27.6c-2.6,0-4.7-2.1-4.7-4.8s2.1-4.8,4.7-4.8c2.6,0,4.7,2.1,4.7,4.8S29.2,27.6,26.6,27.6 M39.9,0
		C17.8,0-0.1,15-0.1,33.5c0,10.1,5.4,19.2,13.8,25.3c0.7,0.5,1.1,1.3,1.1,2.2c0,0.3-0.1,0.6-0.1,0.9c-0.7,2.5-1.7,6.6-1.8,6.8
		c-0.1,0.3-0.2,0.6-0.2,1c0,0.7,0.6,1.3,1.3,1.3c0.3,0,0.5-0.1,0.8-0.2l8.7-5.1c0.7-0.4,1.4-0.6,2.1-0.6c0.4,0,0.8,0.1,1.2,0.2
		c4.1,1.2,8.5,1.8,13,1.8c0.7,0,1.5,0,2.2-0.1c-0.9-2.6-1.3-5.4-1.3-8.2c0-16.9,16.3-30.6,36.4-30.6c0.7,0,0.9,0,1.6,0.1
		C75.7,12.2,59.8,0,39.9,0">
  </path>
  <g id="XMLID_580_">
   <path id="XMLID_587_" class="st0" d="M230.7,10.4l5.2,2.1c-1.6,5.6-3.2,10.2-5.2,15.1v51.4h-5.5V38.5c-2,3.2-3.7,5.9-6.1,9.1
			l-4.2-3.9C221.8,34.6,227.7,23,230.7,10.4z">
   </path>
   <path id="XMLID_586_" class="st0" d="M260.1,10.2c1.1,2,3.7,6.8,5.2,9.8h19.9v5.3h-49.1V20h22.8c-1.4-2.6-2.8-5.2-3.8-6.9
			L260.1,10.2z">
   </path>
   <rect id="XMLID_585_" x="242" y="31.7" class="st0" width="37.6" height="4.8">
   </rect>
   <rect id="XMLID_584_" x="242" y="42.8" class="st0" width="37.6" height="4.9">
   </rect>
   <path id="XMLID_581_" class="st0" d="M242,54v23h5.7H274h5.7V54H242z M274,72h-26.3V59H274V72z">
   </path>
  </g>
  <g id="XMLID_571_">
   <path id="XMLID_579_" class="st0" d="M147.5,27.7l4.5,2.5c-1.4,3-2.3,4.9-4.3,8.2l0,40.4h-5.1l0-32.7c-2.1,2.9-3.4,4.5-5.5,6.8
			l-4-3.8C138.3,43.8,144,35.3,147.5,27.7z">
   </path>
   <path id="XMLID_578_" class="st0" d="M146.7,10.5l4.7,2.7c-3.4,6.1-9.3,14.1-14.4,19.9l-4-3.7C137.9,23.9,143.6,16.2,146.7,10.5z">
   </path>
   <rect id="XMLID_577_" x="154" y="36.9" class="st0" width="23.9" height="4.9">
   </rect>
   <polygon id="XMLID_576_" class="st0" points="159.9,15.7 159.9,27.4 164.7,27.4 164.7,10.2 169.6,10.2 169.6,27.4 174.4,27.4 
			174.4,15.6 179.3,15.6 179.3,32.1 155.3,32.1 155.3,15.6 		">
   </polygon>
   <path id="XMLID_575_" class="st0" d="M182.1,56.5c0,0-3.9,3.7-5,4.7v-14h-20.9l0,10.8c0,7.8-1.7,11.2-5,14.8l3.8,3.5
			c5.1-5.5,6.2-9.9,6.2-17.2v-6.9l11.1,0c0,0,0.2,12-0.2,13.9l3.3,3.1c0,0,8-7.2,10.4-9.3L182.1,56.5z">
   </path>
   <path id="XMLID_572_" class="st0" d="M196.6,57.3c3.6-7.7,5.6-18.3,5.8-32.2l3.4,0V20L191,20c0.2-2.9,0.1-6.1,0.1-8h-4.8
			c0.1,7.4-0.8,14.4-1.8,19.3c-1.2,5.5-3.1,10.8-5.2,14l3.7,3.3c1.1-1.7,2-3.4,3.1-5.8c1.9,7,2.8,8.9,5.1,14.2
			c-3.4,7-7.6,13.2-11.5,17.9l4,3.6c2-2.4,6.3-8.3,10.4-16.1c1.8,3.4,5.6,9.3,10,16l4-4.1C204.5,69.8,199.5,62.9,196.6,57.3z
			 M193.7,51.5c-2.5-6.1-3.7-9.6-5.2-16.2c0.8-2.6,1.5-6.7,1.8-10.1h7.6C197.5,36.4,196,45.2,193.7,51.5z">
   </path>
  </g>
  <path id="XMLID_567_" class="st0" d="M88.2,54c-2.3,0-4.2-1.9-4.2-4.2s1.9-4.2,4.2-4.2c2.3,0,4.2,1.9,4.2,4.2S90.5,54,88.2,54
		 M66,54c-2.3,0-4.2-1.9-4.2-4.2s1.9-4.2,4.2-4.2c2.3,0,4.2,1.9,4.2,4.2S68.3,54,66,54 M98.9,79.9c7-5.1,11.5-12.7,11.5-21.1
		c0-15.4-14.9-27.9-33.3-27.9c-18.4,0-33.3,12.5-33.3,27.9c0,15.4,14.9,27.9,33.3,27.9c3.8,0,7.5-0.5,10.9-1.5
		c0.3-0.1,0.6-0.1,1-0.1c0.6,0,1.2,0.2,1.8,0.5l7.3,4.2c0.2,0.1,0.4,0.2,0.6,0.2c0.6,0,1.1-0.5,1.1-1.1c0-0.3-0.1-0.6-0.2-0.8
		c0-0.2-0.9-3.5-1.5-5.6c-0.1-0.2-0.1-0.5-0.1-0.7C97.9,81,98.3,80.3,98.9,79.9">
  </path>
 </g>
</svg>